PathFileType	4	(X/Y/Z)	67_2_9_p0_0-346_filt_butterworth.trc
DataRate	CameraRate	NumFrames	NumMarkers	Units	OrigDataRate	OrigDataStartFrame	OrigNumFrames
59.0	59.0	4	27	m	59.0	0	346
Frame#	Time	RHip			RKnee			RAnkle			RBigToe			RSmallToe			RHeel			LHip			LKnee			LAnkle			LBigToe			LSmallToe			LHeel			Neck			Head			Nose			RShoulder			RElbow			RWrist			RThumb			RIndex			RPinky			LShoulder			LElbow			LWrist			LThumb			LIndex			LPinky			
		X1	Y1	Z1	X2	Y2	Z2	X3	Y3	Z3	X4	Y4	Z4	X5	Y5	Z5	X6	Y6	Z6	X7	Y7	Z7	X8	Y8	Z8	X9	Y9	Z9	X10	Y10	Z10	X11	Y11	Z11	X12	Y12	Z12	X13	Y13	Z13	X14	Y14	Z14	X15	Y15	Z15	X16	Y16	Z16	X17	Y17	Z17	X18	Y18	Z18	X19	Y19	Z19	X20	Y20	Z20	X21	Y21	Z21	X22	Y22	Z22	X23	Y23	Z23	X24	Y24	Z24	X25	Y25	Z25	X26	Y26	Z26	X27	Y27	Z27	
0	0.0	0.3666151217350743	0.48806154048010375	-0.11102959952674735	0.36265051641768925	0.6718165891063831	0.3227110219592813	0.342303659900564	0.8514405754038292	0.7571653490852736	0.34235155293505365	0.635453780994689	0.8089186189407463	0.4003931005482275	0.6813354138042004	0.8090640053441365	0.330453779974813	0.9446646371582057	0.8096105222865997	0.1888098697195223	0.5323350723455594	-0.10460678548625386	0.17995491391292634	0.7028040730439968	0.32419503652300496	0.18218167522080878	0.8349961098495888	0.7406594033717917	0.20048120018435175	0.6745802155930459	0.8032896631193355	0.15007240912167824	0.6919932338898714	0.7869550973110171	0.19737344763248624	0.8817668875361507	0.8009505513463648	0.3016031313297201	0.39037670152165305	-0.6507745622437788	0.3214732108990591	0.2700661619726105	-0.8747590063946253	0.3276613216847358	0.2609200628526236	-0.7593593938494794	0.45489204418261686	0.3857132999432296	-0.5403614842543856	0.44553047255464695	0.4174126000823143	-0.27233810583958806	0.34362096220615423	0.4186769013632653	-0.03756366413213783	0.2792616987599429	0.3810764301317018	0.055042315541079044	0.2730830597646432	0.42426629701202967	0.06702889573204412	0.28279736790263776	0.41580654465934797	0.06865437968258176	0.15582884925525756	0.4010262937457323	-0.5592889108299091	0.1445599203077635	0.39750354340942506	-0.2985073791028771	0.22259613199947603	0.3272606511864008	-0.06524814573774652	0.29724060654437406	0.34295808185389903	0.011181707299215053	0.2929697780050048	0.35707267990638425	0.05488495848128928	0.2628648363053848	0.3810276966644837	0.054547290413316886
1	0.0169491525423728	0.3663599258311717	0.48861869874015806	-0.10642546112574039	0.36235562954946526	0.6723944083236233	0.32688143552675175	0.34232300360850965	0.8504932037323537	0.7602652148445843	0.3427402250623187	0.6368763099063196	0.8090948446108729	0.40040829296173724	0.6823554409620268	0.8090580429969474	0.330486082150969	0.9449070944434709	0.8097643321505801	0.18639632880723503	0.5328515820454389	-0.10144510602314108	0.17948469230871905	0.7032863346876715	0.32895227050264464	0.18255049783426502	0.8368684054392723	0.7440041548320098	0.19882604189777942	0.6661712375980782	0.8006040378599931	0.14866091620836142	0.6958355857792405	0.7880019272888211	0.19801566024958783	0.8797279791784387	0.7976148546760813	0.3041063417827838	0.3907546866883745	-0.6508639242501564	0.3214940300492494	0.27009249926302825	-0.8740530627800522	0.3276303379100306	0.2609467848581642	-0.7593508771617131	0.45489327170120564	0.38594426752889455	-0.5391404528287588	0.44657416916659787	0.41764754451581054	-0.2723670710104987	0.3454996838110784	0.40938117510056027	-0.03605415517405102	0.2814229823234526	0.38257462727954217	0.057834266850812416	0.2730932304748488	0.4258458065360082	0.07043056227246602	0.2802363388978397	0.4225786852044383	0.06829823907904357	0.15707280802390294	0.40790670201944235	-0.561405109254336	0.14438980939729096	0.39875138122189185	-0.29726303668101595	0.22468639771091292	0.32850884305498484	-0.06479826494595368	0.3053762127711181	0.3361392399617561	0.01093501771072945	0.2981367150896007	0.3588389013154215	0.053842235789525	0.2630825345261614	0.3806411415383387	0.05456000050362966
2	0.0338983050847457	0.366288046172007	0.48903313073272703	-0.10373377709489023	0.3622523188721709	0.6727546872773106	0.32992325877143436	0.3423993551407443	0.8503134520969169	0.7625224596275799	0.34289139839999067	0.6374716500780553	0.8091258746518186	0.4005521501912055	0.6829089344036828	0.8090365042372915	0.3305135627543496	0.9450056734379251	0.8098275196377667	0.18480821877665285	0.5337186921539726	-0.09888607687365145	0.17921243875953827	0.7035745895438914	0.33179669255047184	0.1827764980399061	0.837963865569636	0.7460003739709654	0.19802956863352567	0.6607708920998138	0.7989313449655027	0.14852648084716313	0.6958678281989353	0.7880038746973091	0.19838525156608336	0.8787652040151558	0.7956678910919366	0.30561039959308967	0.3909806675520687	-0.6509199354253441	0.32150848199267623	0.27009009255791405	-0.8737537313087282	0.327607814918856	0.2609700194243631	-0.7593446640277455	0.4548784448538185	0.38616036249745345	-0.537940205866716	0.4470027257339025	0.41770724106213686	-0.27235078396734785	0.34601264532577	0.4011686858592575	-0.03583596205938701	0.28188911830374436	0.3849095815805341	0.05962294303390129	0.27304452043915717	0.4269081028847681	0.07250064661389054	0.27960282392007557	0.4242244437441796	0.06768871900498645	0.15780563671513423	0.4119132843292661	-0.5627918909937942	0.14434166856767422	0.39972223706071897	-0.2960118078092032	0.2264934202730084	0.3294342852357635	-0.06450607511412665	0.3101835194692505	0.3347190709076847	0.01131508108758657	0.3012574016684379	0.36011331209273356	0.053727639718152205	0.26314549637045925	0.38073943414808264	0.054559915025974313
3	0.0508474576271186	0.3666746891855418	0.4894388216255088	-0.10306664271850159	0.3623120277178481	0.6728699840237317	0.33138322676821846	0.3427726479741279	0.8520246342530583	0.7637196766364351	0.34261698311415983	0.6362628830271486	0.8087415885378382	0.40114365951728803	0.6830949127260137	0.8090198989113331	0.3305314957486355	0.9449959689845804	0.8098197470818246	0.18401444490239585	0.5360466869310556	-0.09715706979382532	0.17914647669001757	0.7036546868798755	0.3325867730234482	0.182846169992179	0.8382776784511557	0.7465477335114482	0.19834996131950505	0.6579685609069696	0.7984641582651539	0.1492677719386315	0.6934386386624469	0.7873339646966183	0.19844341838457968	0.8786754054200403	0.7951643207663694	0.30605369874606947	0.3910486446929117	-0.6509404541977863	0.3215174601213768	0.2700467719035694	-0.8739875655249314	0.3275970342199888	0.260986756642113	-0.7593418603407184	0.45484706238119416	0.38631201614055777	-0.5370627983300063	0.4466364464228013	0.417544500088673	-0.27231052196619665	0.3452294179949992	0.3947842928942025	-0.03679255806693851	0.28075569859339683	0.3888431947828385	0.06037131098542832	0.2729607343258827	0.4274333710452007	0.07310270720822823	0.280771110432778	0.4210768473148494	0.06701325443565492	0.1579891753654536	0.4127962680973907	-0.5635151101916599	0.1443883758379067	0.40025201855748843	-0.2950834419844995	0.2276231513689485	0.32987423247802355	-0.06440414746381795	0.3112678803077104	0.33968323332959965	0.01223693312718353	0.3021338535953677	0.36056583858112284	0.05430489848910153	0.2627487051655121	0.3823442734695491	0.05459923219295321
